<svg height="56" viewBox="0 0 209 56" width="209" xmlns="http://www.w3.org/2000/svg">
  <defs>
    <style>
      .cls-1 {
      fill-rule: evenodd;
      }
    </style>
  </defs>
  <path class="cls-1"
      d="M3,5H149c17.874,0,39.941-.942,43,2,1.257,1.209,4.733,2.012,7,4,2.575,2.257,3.939,5.758,5,8,3.343,4.913,2.325,12.508,1,19-0.97,3.433-3.182,6.249-6,9-2.393,2.337-7.286,4.338-11,5-5.114.911-10.682,0.928-18,1-12.667.124-26.755,0-36,0-40.626,0-87.862-.047-128,0,0-.333,1-1.667,1-2,5.282-9.467,7.4-21.4,4-32C9.21,13.427,5.243,8.423,3,5Z"
      data-name="Color Fill 1" id="Color_Fill_1" />
</svg>
